<svg xmlns="http://www.w3.org/2000/svg"
     width="679" height="190"
     viewBox="0 0 679 190">
    <defs>

        <!-- Gradient spans the full text width -->
        <linearGradient id="cqGrad" x1="0" y1="0" x2="679" y2="0" gradientUnits="userSpaceOnUse">
            <stop offset="0%"   stop-color="#3498DB"/>
            <stop offset="100%" stop-color="#9B59B6"/>
        </linearGradient>

        <!-- Rounding filter: blur alpha then threshold back to hard edges with rounded corners -->
        <filter id="round" x="-5%" y="-10%" width="110%" height="120%" color-interpolation-filters="sRGB">
            <feGaussianBlur in="SourceAlpha" stdDeviation="3.5" result="blur"/>
            <feColorMatrix in="blur" type="matrix"
                           values="0 0 0 0 0
                0 0 0 0 0
                0 0 0 0 0
                0 0 0 20 -10"
                           result="rounded"/>
            <feComposite in="SourceGraphic" in2="rounded" operator="in"/>
        </filter>

        <!-- Mask built from rounded text shape -->
        <mask id="textMask">
            <g filter="url(#round)" fill="white">
                <path d="M386 710Q511 710 600.0 644.0Q689 578 719 464H531Q510 508 471.5 531.0Q433 554 384 554Q305 554 256.0 499.0Q207 444 207 352Q207 260 256.0 205.0Q305 150 384 150Q433 150 471.5 173.0Q510 196 531 240H719Q689 126 600.0 60.5Q511 -5 386 -5Q284 -5 203.5 40.5Q123 86 78.0 167.0Q33 248 33 352Q33 456 78.0 537.5Q123 619 203.5 664.5Q284 710 386 710Z" transform="translate(28.00,133.00) scale(0.11000,-0.11000)"/>
                <path d="M46 708Q46 748 74.5 774.5Q103 801 148 801Q192 801 220.5 774.5Q249 748 249 708Q249 669 220.5 642.5Q192 616 148 616Q103 616 74.5 642.5Q46 669 46 708ZM233 558V0H62V558Z" transform="translate(114.02,133.00) scale(0.11000,-0.11000)"/>
                <path d="M408 564V383H361Q297 383 265.0 355.5Q233 328 233 259V0H62V558H233V465Q263 511 308.0 537.5Q353 564 408 564Z" transform="translate(148.67,133.00) scale(0.11000,-0.11000)"/>
                <path d="M308 566Q413 566 483.5 511.0Q554 456 576 356H394Q371 420 305 420Q258 420 230.0 383.5Q202 347 202 279Q202 211 230.0 174.5Q258 138 305 138Q371 138 394 202H576Q554 104 483.0 48.0Q412 -8 308 -8Q226 -8 162.5 27.0Q99 62 63.5 127.0Q28 192 28 279Q28 366 63.5 431.0Q99 496 162.5 531.0Q226 566 308 566Z" transform="translate(197.95,133.00) scale(0.11000,-0.11000)"/>
                <path d="M233 740V0H62V740Z" transform="translate(266.70,133.00) scale(0.11000,-0.11000)"/>
                <path d="M585 238H198Q202 186 231.5 158.5Q261 131 304 131Q368 131 393 185H575Q561 130 524.5 86.0Q488 42 433.0 17.0Q378 -8 310 -8Q228 -8 164.0 27.0Q100 62 64.0 127.0Q28 192 28 279Q28 366 63.5 431.0Q99 496 163.0 531.0Q227 566 310 566Q391 566 454.0 532.0Q517 498 552.5 435.0Q588 372 588 288Q588 264 585 238ZM413 333Q413 377 383.0 403.0Q353 429 308 429Q265 429 235.5 404.0Q206 379 199 333Z" transform="translate(301.35,133.00) scale(0.11000,-0.11000)"/>
                <path d="M562 -120 472 1Q432 -7 394 -7Q295 -7 212.5 39.0Q130 85 81.5 167.5Q33 250 33 353Q33 456 81.5 538.0Q130 620 212.5 666.0Q295 712 394 712Q493 712 575.5 666.0Q658 620 705.5 538.0Q753 456 753 353Q753 263 716.5 188.5Q680 114 615 65L769 -120ZM394 149Q478 149 528.5 205.0Q579 261 579 353Q579 446 528.5 501.5Q478 557 394 557Q309 557 258.5 502.0Q208 447 208 353Q208 260 258.5 204.5Q309 149 394 149Z" transform="translate(394.63,133.00) scale(0.11000,-0.11000)"/>
                <path d="M613 558V0H442V76Q416 39 371.5 16.5Q327 -6 273 -6Q209 -6 160.0 22.5Q111 51 84.0 105.0Q57 159 57 232V558H227V255Q227 199 256.0 168.0Q285 137 334 137Q384 137 413.0 168.0Q442 199 442 255V558Z" transform="translate(483.51,133.00) scale(0.11000,-0.11000)"/>
                <path d="M46 708Q46 748 74.5 774.5Q103 801 148 801Q192 801 220.5 774.5Q249 748 249 708Q249 669 220.5 642.5Q192 616 148 616Q103 616 74.5 642.5Q46 669 46 708ZM233 558V0H62V558Z" transform="translate(559.85,133.00) scale(0.11000,-0.11000)"/>
                <path d="M222 141H464V0H31V136L263 417H33V558H459V422Z" transform="translate(594.50,133.00) scale(0.11000,-0.11000)"/>
            </g>
        </mask>

    </defs>

    <!-- Gradient rect, masked by the rounded text shape -->
    <rect x="0" y="0" width="679" height="190"
          fill="url(#cqGrad)" mask="url(#textMask)"/>

</svg>