<svg width="1129" height="305" viewBox="0 0 1129 305" fill="none" xmlns="http://www.w3.org/2000/svg">
<g clip-path="url(#clip0_2005_353)">
<path d="M167.302 269.7C159.502 269.7 150.802 268.4 141.202 265.8C131.602 263.4 121.902 259.5 112.102 254.1C102.502 248.7 93.602 241.7 85.402 233.1C77.402 224.5 70.902 214.2 65.902 202.2C61.102 190.2 58.702 176.3 58.702 160.5C58.702 145.3 61.102 131.9 65.902 120.3C70.902 108.7 77.402 98.7 85.402 90.3C93.402 81.9 102.202 75.1 111.802 69.9C121.602 64.7 131.402 60.9 141.202 58.5C151.002 55.9 160.002 54.6 168.202 54.6C178.402 54.6 187.402 55.9 195.202 58.5C203.002 60.9 209.302 63.5 214.102 66.3C219.102 68.9 222.202 70.6 223.402 71.4C227.402 74 231.102 76.9 234.502 80.1C238.102 83.1 239.902 87.2 239.902 92.4C239.902 95 239.302 97.7 238.102 100.5C237.102 103.3 235.502 106.2 233.302 109.2C229.302 114.8 225.502 118.9 221.902 121.5C218.502 124.1 215.102 125.4 211.702 125.4C209.102 125.4 206.602 124.8 204.202 123.6C201.802 122.4 198.902 120.7 195.502 118.5C194.102 117.5 192.302 116.4 190.102 115.2C187.902 113.8 184.902 112.6 181.102 111.6C177.302 110.4 172.302 109.8 166.102 109.8C160.902 109.8 155.202 110.8 149.002 112.8C143.002 114.6 137.302 117.6 131.902 121.8C126.502 125.8 122.102 131.2 118.702 138C115.302 144.6 113.602 152.6 113.602 162C113.602 171.6 115.302 179.7 118.702 186.3C122.302 192.9 126.802 198.3 132.202 202.5C137.602 206.5 143.302 209.5 149.302 211.5C155.502 213.3 161.102 214.2 166.102 214.2C171.302 214.2 175.702 213.8 179.302 213C182.902 212 186.102 210.7 188.902 209.1C191.902 207.5 194.602 205.9 197.002 204.3C199.202 202.7 201.602 201.3 204.202 200.1C206.802 198.9 209.402 198.3 212.002 198.3C215.402 198.3 218.802 199.7 222.202 202.5C225.602 205.3 229.202 209.6 233.002 215.4C235.202 218.8 236.802 222 237.802 225C239.002 227.8 239.602 230.4 239.602 232.8C239.602 237.8 237.802 241.8 234.202 244.8C230.802 247.8 227.102 250.5 223.102 252.9C221.702 253.7 218.702 255.5 214.102 258.3C209.502 261.1 203.302 263.7 195.502 266.1C187.702 268.5 178.302 269.7 167.302 269.7ZM281.26 266.7C272.26 266.7 265.86 265.4 262.06 262.8C258.26 260 255.96 256.5 255.16 252.3C254.56 248.1 254.26 243.8 254.26 239.4V141.6C254.26 137.2 254.66 133 255.46 129C256.26 124.8 258.56 121.4 262.36 118.8C266.16 116 272.56 114.6 281.56 114.6C290.56 114.6 296.86 116 300.46 118.8C304.26 121.4 306.56 124.8 307.36 129C308.16 133.2 308.56 137.6 308.56 142.2V239.7C308.56 244.1 308.16 248.4 307.36 252.6C306.56 256.8 304.26 260.2 300.46 262.8C296.86 265.4 290.46 266.7 281.26 266.7ZM281.26 99.9C272.26 99.9 265.86 98.6 262.06 96C258.26 93.2 255.96 89.7 255.16 85.5C254.56 81.3 254.26 77 254.26 72.6C254.26 68 254.66 63.7 255.46 59.7C256.26 55.5 258.56 52.1 262.36 49.5C266.16 46.9 272.56 45.6 281.56 45.6C290.56 45.6 296.86 47 300.46 49.8C304.26 52.4 306.56 55.8 307.36 60C308.16 64.2 308.56 68.5 308.56 72.9C308.56 77.3 308.16 81.6 307.36 85.8C306.56 90 304.26 93.4 300.46 96C296.86 98.6 290.46 99.9 281.26 99.9ZM355.053 266.7C346.053 266.7 339.653 265.4 335.853 262.8C332.053 260 329.753 256.5 328.953 252.3C328.353 247.9 328.053 243.5 328.053 239.1V141.3C328.053 136.7 328.453 132.4 329.253 128.4C330.053 124.2 332.353 120.8 336.153 118.2C339.953 115.6 346.353 114.3 355.353 114.3C364.153 114.3 370.353 115.5 373.953 117.9C377.753 120.3 380.053 123 380.853 126C381.653 128.8 382.053 131 382.053 132.6L377.253 130.8C377.253 130.8 378.053 129.9 379.653 128.1C381.253 126.3 383.553 124.2 386.553 121.8C389.753 119.4 393.453 117.3 397.653 115.5C402.053 113.7 406.953 112.8 412.353 112.8C414.153 112.8 416.353 113 418.953 113.4C421.753 113.6 424.653 114.1 427.653 114.9C430.853 115.7 433.753 116.9 436.353 118.5C439.153 120.1 441.353 122.2 442.953 124.8C444.753 127.4 445.653 130.6 445.653 134.4C445.653 144.4 443.453 152.9 439.053 159.9C434.853 166.9 429.253 170.4 422.253 170.4C418.453 170.4 415.753 170.2 414.153 169.8C412.553 169.2 411.353 168.7 410.553 168.3C409.953 167.7 409.153 167.2 408.153 166.8C407.353 166.2 405.753 165.9 403.353 165.9C400.353 165.9 397.553 166.3 394.953 167.1C392.553 167.7 390.353 168.7 388.353 170.1C386.553 171.5 385.153 173.2 384.153 175.2C383.153 177 382.653 179 382.653 181.2V239.7C382.653 244.1 382.253 248.4 381.453 252.6C380.653 256.8 378.353 260.2 374.553 262.8C370.753 265.4 364.253 266.7 355.053 266.7ZM522.34 268.2C514.14 268.2 505.44 266.6 496.24 263.4C487.24 260 478.74 255.1 470.74 248.7C462.74 242.1 456.24 233.9 451.24 224.1C446.24 214.3 443.74 202.9 443.74 189.9C443.74 177.1 446.24 165.9 451.24 156.3C456.24 146.5 462.64 138.4 470.44 132C478.44 125.6 486.94 120.8 495.94 117.6C505.14 114.2 513.74 112.5 521.74 112.5C529.34 112.5 535.94 113.3 541.54 114.9C547.14 116.5 551.74 118.3 555.34 120.3C558.94 122.1 561.54 123.5 563.14 124.5C567.14 126.9 570.84 129.7 574.24 132.9C577.84 135.9 579.64 140 579.64 145.2C579.64 147.8 579.14 150.5 578.14 153.3C577.14 155.9 575.54 158.9 573.34 162.3C566.14 173.3 558.94 178.8 551.74 178.8C548.54 178.8 545.74 178.3 543.34 177.3C540.94 176.1 538.74 174.8 536.74 173.4C534.74 172 532.54 170.8 530.14 169.8C527.94 168.6 525.14 168 521.74 168C517.74 168 514.04 169 510.64 171C507.24 173 504.54 175.7 502.54 179.1C500.54 182.3 499.54 186 499.54 190.2C499.54 194.4 500.54 198.2 502.54 201.6C504.54 205 507.14 207.7 510.34 209.7C513.74 211.7 517.34 212.7 521.14 212.7C523.94 212.7 526.24 212.4 528.04 211.8C530.04 211.2 531.54 210.6 532.54 210C533.54 209.2 534.14 208.8 534.34 208.8C537.14 207.2 539.74 205.7 542.14 204.3C544.74 202.9 547.34 202.2 549.94 202.2C553.34 202.2 556.84 203.5 560.44 206.1C564.04 208.5 568.04 212.5 572.44 218.1C576.64 223.3 578.94 228.2 579.34 232.8C579.94 237.2 578.84 241.4 576.04 245.4C573.24 249.2 568.94 252.9 563.14 256.5C562.54 256.9 560.44 258.1 556.84 260.1C553.44 261.9 548.84 263.7 543.04 265.5C537.24 267.3 530.34 268.2 522.34 268.2ZM659.719 266.7C650.519 266.7 642.419 266.3 635.419 265.5C628.619 264.7 622.819 263.1 618.019 260.7C613.219 258.3 609.319 254.9 606.319 250.5C603.319 245.9 601.119 240 599.719 232.8C598.319 225.4 597.619 216.2 597.619 205.2V72.3C597.619 67.7 598.019 63.4 598.819 59.4C599.619 55.2 601.919 51.8 605.719 49.2C609.519 46.4 615.919 45 624.919 45C633.919 45 640.219 46.4 643.819 49.2C647.619 51.8 649.919 55.2 650.719 59.4C651.519 63.6 651.919 68 651.919 72.6V201.9C651.919 204.9 651.919 207.3 651.919 209.1C652.119 210.7 652.419 211.9 652.819 212.7C653.419 213.5 654.219 214 655.219 214.2C656.419 214.2 658.019 214.2 660.019 214.2C662.619 214.2 665.319 214.6 668.119 215.4C671.119 216 673.619 218.1 675.619 221.7C677.819 225.1 678.919 231.1 678.919 239.7C678.919 248.7 677.819 255.1 675.619 258.9C673.619 262.7 671.119 264.9 668.119 265.5C665.119 266.3 662.319 266.7 659.719 266.7ZM766.683 270C751.683 270 738.983 267.6 728.583 262.8C718.183 257.8 709.783 251.4 703.383 243.6C696.983 235.6 692.283 227 689.283 217.8C686.283 208.6 684.783 199.7 684.783 191.1C684.783 175.3 688.283 161.4 695.283 149.4C702.283 137.4 711.983 128 724.383 121.2C736.783 114.4 750.983 111 766.983 111C779.383 111 789.983 113 798.783 117C807.583 121 814.683 126.1 820.083 132.3C825.683 138.5 829.783 145.1 832.383 152.1C834.983 159.1 836.283 165.6 836.283 171.6C836.283 183 833.483 191.7 827.883 197.7C822.283 203.7 815.083 206.7 806.283 206.7H742.383C743.183 209.9 744.783 212.7 747.183 215.1C749.783 217.3 752.983 219.1 756.783 220.5C760.583 221.7 764.683 222.3 769.083 222.3C773.483 222.3 777.383 222.1 780.783 221.7C784.183 221.1 787.083 220.4 789.483 219.6C792.083 218.8 794.383 218 796.383 217.2C798.583 216.4 800.483 215.8 802.083 215.4C803.883 214.8 805.583 214.5 807.183 214.5C810.783 214.5 814.083 215.7 817.083 218.1C820.083 220.5 822.783 224.1 825.183 228.9C826.583 231.5 827.583 234 828.183 236.4C828.783 238.6 829.083 240.7 829.083 242.7C829.083 248.7 826.583 253.7 821.583 257.7C816.783 261.7 809.783 264.7 800.583 266.7C791.383 268.9 780.083 270 766.683 270ZM742.383 178.5H775.983C778.783 178.5 780.783 177.9 781.983 176.7C783.383 175.5 784.083 173.7 784.083 171.3C784.083 168.7 783.283 166.5 781.683 164.7C780.283 162.9 778.283 161.6 775.683 160.8C773.083 159.8 769.983 159.3 766.383 159.3C761.583 159.3 757.383 160.3 753.783 162.3C750.183 164.1 747.383 166.5 745.383 169.5C743.583 172.3 742.583 175.3 742.383 178.5ZM1056.53 216.6C1065.13 222.2 1069.93 227.8 1070.93 233.4C1071.93 238.8 1069.33 245.9 1063.13 254.7C1058.73 260.9 1054.73 265.1 1051.13 267.3C1047.53 269.5 1043.63 270 1039.43 268.8C1035.43 267.6 1030.63 265.2 1025.03 261.6L1008.23 250.8C1000.03 256.8 991.03 261.5 981.23 264.9C971.43 268.3 961.13 270 950.33 270C935.73 270 922.03 267.3 909.23 261.9C896.63 256.3 885.53 248.6 875.93 238.8C866.33 229 858.73 217.7 853.13 204.9C847.73 191.9 845.03 178.1 845.03 163.5C845.03 148.3 847.63 134.1 852.83 120.9C858.23 107.7 865.63 96.1 875.03 86.1C884.43 76.1 895.33 68.3 907.73 62.7C920.33 57.1 933.73 54.3 947.93 54.3C962.53 54.3 976.13 57.1 988.73 62.7C1001.53 68.1 1012.73 75.7 1022.33 85.5C1031.93 95.3 1039.43 106.8 1044.83 120C1050.23 133 1052.93 147.1 1052.93 162.3C1052.93 170.3 1052.03 178.1 1050.23 185.7C1048.63 193.3 1046.23 200.6 1043.03 207.6L1056.53 216.6ZM948.83 215.1C955.63 215.1 962.03 213.8 968.03 211.2C974.03 208.4 979.23 204.7 983.63 200.1C988.23 195.3 991.73 189.7 994.13 183.3C996.73 176.7 998.03 169.7 998.03 162.3C998.03 154.9 996.73 148 994.13 141.6C991.53 135.2 987.93 129.6 983.33 124.8C978.93 119.8 973.73 116 967.73 113.4C961.93 110.6 955.73 109.2 949.13 109.2C942.33 109.2 935.93 110.6 929.93 113.4C923.93 116 918.63 119.8 914.03 124.8C909.63 129.6 906.13 135.2 903.53 141.6C901.13 148 899.93 154.9 899.93 162.3C899.93 169.7 901.23 176.6 903.83 183C906.43 189.4 909.93 195 914.33 199.8C918.93 204.6 924.13 208.4 929.93 211.2C935.93 213.8 942.23 215.1 948.83 215.1Z" fill="url(#paint0_linear_2005_353)"/>
</g>
<defs>
<linearGradient id="paint0_linear_2005_353" x1="-406" y1="153" x2="1536" y2="153" gradientUnits="userSpaceOnUse">
<stop stop-color="#3490DB"/>
<stop offset="0.9375" stop-color="#9B59B6"/>
</linearGradient>
<clipPath id="clip0_2005_353">
<rect width="1129" height="305" fill="white"/>
</clipPath>
</defs>
</svg>
