<svg width="1537" height="255" viewBox="0 0 1537 255" fill="none" xmlns="http://www.w3.org/2000/svg">
<g clip-path="url(#clip0_2005_353)">
<path d="M135.902 244.7C128.102 244.7 119.402 243.4 109.802 240.8C100.202 238.4 90.5016 234.5 80.7016 229.1C71.1016 223.7 62.2016 216.7 54.0016 208.1C46.0016 199.5 39.5016 189.2 34.5016 177.2C29.7016 165.2 27.3016 151.3 27.3016 135.5C27.3016 120.3 29.7016 106.9 34.5016 95.3C39.5016 83.7 46.0016 73.7 54.0016 65.3C62.0016 56.9 70.8016 50.1 80.4016 44.9C90.2016 39.7 100.002 35.9 109.802 33.5C119.602 30.9 128.602 29.6 136.802 29.6C147.002 29.6 156.002 30.9 163.802 33.5C171.602 35.9 177.902 38.5 182.702 41.3C187.702 43.9 190.802 45.6 192.002 46.4C196.002 49 199.702 51.9 203.102 55.1C206.702 58.1 208.502 62.2 208.502 67.4C208.502 70 207.902 72.7 206.702 75.5C205.702 78.3 204.102 81.2 201.902 84.2C197.902 89.8 194.102 93.9 190.502 96.5C187.102 99.1 183.702 100.4 180.302 100.4C177.702 100.4 175.202 99.8 172.802 98.6C170.402 97.4 167.502 95.7 164.102 93.5C162.702 92.5 160.902 91.4 158.702 90.2C156.502 88.8 153.502 87.6 149.702 86.6C145.902 85.4 140.902 84.8 134.702 84.8C129.502 84.8 123.802 85.8 117.602 87.8C111.602 89.6 105.902 92.6 100.502 96.8C95.1016 100.8 90.7016 106.2 87.3016 113C83.9016 119.6 82.2016 127.6 82.2016 137C82.2016 146.6 83.9016 154.7 87.3016 161.3C90.9016 167.9 95.4016 173.3 100.802 177.5C106.202 181.5 111.902 184.5 117.902 186.5C124.102 188.3 129.702 189.2 134.702 189.2C139.902 189.2 144.302 188.8 147.902 188C151.502 187 154.702 185.7 157.502 184.1C160.502 182.5 163.202 180.9 165.602 179.3C167.802 177.7 170.202 176.3 172.802 175.1C175.402 173.9 178.002 173.3 180.602 173.3C184.002 173.3 187.402 174.7 190.802 177.5C194.202 180.3 197.802 184.6 201.602 190.4C203.802 193.8 205.402 197 206.402 200C207.602 202.8 208.202 205.4 208.202 207.8C208.202 212.8 206.402 216.8 202.802 219.8C199.402 222.8 195.702 225.5 191.702 227.9C190.302 228.7 187.302 230.5 182.702 233.3C178.102 236.1 171.902 238.7 164.102 241.1C156.302 243.5 146.902 244.7 135.902 244.7ZM249.859 241.7C240.859 241.7 234.459 240.4 230.659 237.8C226.859 235 224.559 231.5 223.759 227.3C223.159 223.1 222.859 218.8 222.859 214.4V116.6C222.859 112.2 223.259 108 224.059 104C224.859 99.8 227.159 96.4 230.959 93.8C234.759 91 241.159 89.6 250.159 89.6C259.159 89.6 265.459 91 269.059 93.8C272.859 96.4 275.159 99.8 275.959 104C276.759 108.2 277.159 112.6 277.159 117.2V214.7C277.159 219.1 276.759 223.4 275.959 227.6C275.159 231.8 272.859 235.2 269.059 237.8C265.459 240.4 259.059 241.7 249.859 241.7ZM249.859 74.9C240.859 74.9 234.459 73.6 230.659 71C226.859 68.2 224.559 64.7 223.759 60.5C223.159 56.3 222.859 52 222.859 47.6C222.859 43 223.259 38.7 224.059 34.7C224.859 30.5 227.159 27.1 230.959 24.5C234.759 21.9 241.159 20.6 250.159 20.6C259.159 20.6 265.459 22 269.059 24.8C272.859 27.4 275.159 30.8 275.959 35C276.759 39.2 277.159 43.5 277.159 47.9C277.159 52.3 276.759 56.6 275.959 60.8C275.159 65 272.859 68.4 269.059 71C265.459 73.6 259.059 74.9 249.859 74.9ZM323.652 241.7C314.652 241.7 308.252 240.4 304.452 237.8C300.652 235 298.352 231.5 297.552 227.3C296.952 222.9 296.652 218.5 296.652 214.1V116.3C296.652 111.7 297.052 107.4 297.852 103.4C298.652 99.2 300.952 95.8 304.752 93.2C308.552 90.6 314.952 89.3 323.952 89.3C332.752 89.3 338.952 90.5 342.552 92.9C346.352 95.3 348.652 98 349.452 101C350.252 103.8 350.652 106 350.652 107.6L345.852 105.8C345.852 105.8 346.652 104.9 348.252 103.1C349.852 101.3 352.152 99.2 355.152 96.8C358.352 94.4 362.052 92.3 366.252 90.5C370.652 88.7 375.552 87.8 380.952 87.8C382.752 87.8 384.952 88 387.552 88.4C390.352 88.6 393.252 89.1 396.252 89.9C399.452 90.7 402.352 91.9 404.952 93.5C407.752 95.1 409.952 97.2 411.552 99.8C413.352 102.4 414.252 105.6 414.252 109.4C414.252 119.4 412.052 127.9 407.652 134.9C403.452 141.9 397.852 145.4 390.852 145.4C387.052 145.4 384.352 145.2 382.752 144.8C381.152 144.2 379.952 143.7 379.152 143.3C378.552 142.7 377.752 142.2 376.752 141.8C375.952 141.2 374.352 140.9 371.952 140.9C368.952 140.9 366.152 141.3 363.552 142.1C361.152 142.7 358.952 143.7 356.952 145.1C355.152 146.5 353.752 148.2 352.752 150.2C351.752 152 351.252 154 351.252 156.2V214.7C351.252 219.1 350.852 223.4 350.052 227.6C349.252 231.8 346.952 235.2 343.152 237.8C339.352 240.4 332.852 241.7 323.652 241.7ZM490.94 243.2C482.74 243.2 474.04 241.6 464.84 238.4C455.84 235 447.34 230.1 439.34 223.7C431.34 217.1 424.84 208.9 419.84 199.1C414.84 189.3 412.34 177.9 412.34 164.9C412.34 152.1 414.84 140.9 419.84 131.3C424.84 121.5 431.24 113.4 439.04 107C447.04 100.6 455.54 95.8 464.54 92.6C473.74 89.2 482.34 87.5 490.34 87.5C497.94 87.5 504.54 88.3 510.14 89.9C515.74 91.5 520.34 93.3 523.94 95.3C527.54 97.1 530.14 98.5 531.74 99.5C535.74 101.9 539.44 104.7 542.84 107.9C546.44 110.9 548.24 115 548.24 120.2C548.24 122.8 547.74 125.5 546.74 128.3C545.74 130.9 544.14 133.9 541.94 137.3C534.74 148.3 527.54 153.8 520.34 153.8C517.14 153.8 514.34 153.3 511.94 152.3C509.54 151.1 507.34 149.8 505.34 148.4C503.34 147 501.14 145.8 498.74 144.8C496.54 143.6 493.74 143 490.34 143C486.34 143 482.64 144 479.24 146C475.84 148 473.14 150.7 471.14 154.1C469.14 157.3 468.14 161 468.14 165.2C468.14 169.4 469.14 173.2 471.14 176.6C473.14 180 475.74 182.7 478.94 184.7C482.34 186.7 485.94 187.7 489.74 187.7C492.54 187.7 494.84 187.4 496.64 186.8C498.64 186.2 500.14 185.6 501.14 185C502.14 184.2 502.74 183.8 502.94 183.8C505.74 182.2 508.34 180.7 510.74 179.3C513.34 177.9 515.94 177.2 518.54 177.2C521.94 177.2 525.44 178.5 529.04 181.1C532.64 183.5 536.64 187.5 541.04 193.1C545.24 198.3 547.54 203.2 547.94 207.8C548.54 212.2 547.44 216.4 544.64 220.4C541.84 224.2 537.54 227.9 531.74 231.5C531.14 231.9 529.04 233.1 525.44 235.1C522.04 236.9 517.44 238.7 511.64 240.5C505.84 242.3 498.94 243.2 490.94 243.2ZM628.319 241.7C619.119 241.7 611.019 241.3 604.019 240.5C597.219 239.7 591.419 238.1 586.619 235.7C581.819 233.3 577.919 229.9 574.919 225.5C571.919 220.9 569.719 215 568.319 207.8C566.919 200.4 566.219 191.2 566.219 180.2V47.3C566.219 42.7 566.619 38.4 567.419 34.4C568.219 30.2 570.519 26.8 574.319 24.2C578.119 21.4 584.519 20 593.519 20C602.519 20 608.819 21.4 612.419 24.2C616.219 26.8 618.519 30.2 619.319 34.4C620.119 38.6 620.519 43 620.519 47.6V176.9C620.519 179.9 620.519 182.3 620.519 184.1C620.719 185.7 621.019 186.9 621.419 187.7C622.019 188.5 622.819 189 623.819 189.2C625.019 189.2 626.619 189.2 628.619 189.2C631.219 189.2 633.919 189.6 636.719 190.4C639.719 191 642.219 193.1 644.219 196.7C646.419 200.1 647.519 206.1 647.519 214.7C647.519 223.7 646.419 230.1 644.219 233.9C642.219 237.7 639.719 239.9 636.719 240.5C633.719 241.3 630.919 241.7 628.319 241.7ZM735.283 245C720.283 245 707.583 242.6 697.183 237.8C686.783 232.8 678.383 226.4 671.983 218.6C665.583 210.6 660.883 202 657.883 192.8C654.883 183.6 653.383 174.7 653.383 166.1C653.383 150.3 656.883 136.4 663.883 124.4C670.883 112.4 680.583 103 692.983 96.2C705.383 89.4 719.583 86 735.583 86C747.983 86 758.583 88 767.383 92C776.183 96 783.283 101.1 788.683 107.3C794.283 113.5 798.383 120.1 800.983 127.1C803.583 134.1 804.883 140.6 804.883 146.6C804.883 158 802.083 166.7 796.483 172.7C790.883 178.7 783.683 181.7 774.883 181.7H710.983C711.783 184.9 713.383 187.7 715.783 190.1C718.383 192.3 721.583 194.1 725.383 195.5C729.183 196.7 733.283 197.3 737.683 197.3C742.083 197.3 745.983 197.1 749.383 196.7C752.783 196.1 755.683 195.4 758.083 194.6C760.683 193.8 762.983 193 764.983 192.2C767.183 191.4 769.083 190.8 770.683 190.4C772.483 189.8 774.183 189.5 775.783 189.5C779.383 189.5 782.683 190.7 785.683 193.1C788.683 195.5 791.383 199.1 793.783 203.9C795.183 206.5 796.183 209 796.783 211.4C797.383 213.6 797.683 215.7 797.683 217.7C797.683 223.7 795.183 228.7 790.183 232.7C785.383 236.7 778.383 239.7 769.183 241.7C759.983 243.9 748.683 245 735.283 245ZM710.983 153.5H744.583C747.383 153.5 749.383 152.9 750.583 151.7C751.983 150.5 752.683 148.7 752.683 146.3C752.683 143.7 751.883 141.5 750.283 139.7C748.883 137.9 746.883 136.6 744.283 135.8C741.683 134.8 738.583 134.3 734.983 134.3C730.183 134.3 725.983 135.3 722.383 137.3C718.783 139.1 715.983 141.5 713.983 144.5C712.183 147.3 711.183 150.3 710.983 153.5ZM1095.74 191.6C1104.34 197.2 1109.14 202.8 1110.14 208.4C1111.14 213.8 1108.54 220.9 1102.34 229.7C1097.94 235.9 1093.94 240.1 1090.34 242.3C1086.74 244.5 1082.84 245 1078.64 243.8C1074.64 242.6 1069.84 240.2 1064.24 236.6L1047.44 225.8C1039.24 231.8 1030.24 236.5 1020.44 239.9C1010.64 243.3 1000.34 245 989.535 245C974.935 245 961.235 242.3 948.435 236.9C935.835 231.3 924.735 223.6 915.135 213.8C905.535 204 897.935 192.7 892.335 179.9C886.935 166.9 884.235 153.1 884.235 138.5C884.235 123.3 886.835 109.1 892.035 95.9C897.435 82.7 904.835 71.1 914.235 61.1C923.635 51.1 934.535 43.3 946.935 37.7C959.535 32.1 972.935 29.3 987.135 29.3C1001.74 29.3 1015.34 32.1 1027.94 37.7C1040.74 43.1 1051.94 50.7 1061.54 60.5C1071.14 70.3 1078.64 81.8 1084.04 95C1089.44 108 1092.14 122.1 1092.14 137.3C1092.14 145.3 1091.24 153.1 1089.44 160.7C1087.84 168.3 1085.44 175.6 1082.24 182.6L1095.74 191.6ZM988.035 190.1C994.835 190.1 1001.24 188.8 1007.24 186.2C1013.24 183.4 1018.44 179.7 1022.84 175.1C1027.44 170.3 1030.94 164.7 1033.34 158.3C1035.94 151.7 1037.24 144.7 1037.24 137.3C1037.24 129.9 1035.94 123 1033.34 116.6C1030.74 110.2 1027.14 104.6 1022.54 99.8C1018.14 94.8 1012.94 91 1006.94 88.4C1001.14 85.6 994.935 84.2 988.335 84.2C981.535 84.2 975.135 85.6 969.135 88.4C963.135 91 957.835 94.8 953.235 99.8C948.835 104.6 945.335 110.2 942.735 116.6C940.335 123 939.135 129.9 939.135 137.3C939.135 144.7 940.435 151.6 943.035 158C945.635 164.4 949.135 170 953.535 174.8C958.135 179.6 963.335 183.4 969.135 186.2C975.135 188.8 981.435 190.1 988.035 190.1ZM1182.72 241.1C1173.12 241.1 1164.12 239.2 1155.72 235.4C1147.52 231.6 1140.32 226.3 1134.12 219.5C1127.92 212.5 1123.12 204.4 1119.72 195.2C1116.32 186 1114.62 176 1114.62 165.2V116.3C1114.62 111.7 1115.02 107.4 1115.82 103.4C1116.62 99.2 1118.92 95.8 1122.72 93.2C1126.52 90.4 1132.92 89 1141.92 89C1151.12 89 1157.52 90.4 1161.12 93.2C1164.92 95.8 1167.22 99.2 1168.02 103.4C1168.82 107.6 1169.22 112 1169.22 116.6V165.2C1169.22 169.8 1170.02 173.7 1171.62 176.9C1173.42 180.1 1175.92 182.6 1179.12 184.4C1182.52 186 1186.42 186.8 1190.82 186.8C1195.22 186.8 1199.02 185.9 1202.22 184.1C1205.42 182.3 1207.92 179.8 1209.72 176.6C1211.52 173.4 1212.42 169.6 1212.42 165.2V116C1212.42 111.4 1212.82 107.1 1213.62 103.1C1214.42 98.9 1216.72 95.5 1220.52 92.9C1224.32 90.3 1230.72 89 1239.72 89C1248.92 89 1255.32 90.4 1258.92 93.2C1262.72 95.8 1265.02 99.2 1265.82 103.4C1266.62 107.6 1267.02 111.9 1267.02 116.3V215C1267.02 219.4 1266.62 223.6 1265.82 227.6C1265.02 231.6 1262.72 234.9 1258.92 237.5C1255.12 240.1 1248.72 241.4 1239.72 241.4C1233.12 241.4 1227.92 240.6 1224.12 239C1220.52 237.6 1217.92 235.8 1216.32 233.6C1214.72 231.2 1213.72 228.9 1213.32 226.7C1213.12 224.3 1213.02 222.3 1213.02 220.7L1218.12 222.2C1218.12 222.2 1217.32 223.2 1215.72 225.2C1214.12 227 1211.72 229.2 1208.52 231.8C1205.52 234.2 1201.82 236.4 1197.42 238.4C1193.22 240.2 1188.32 241.1 1182.72 241.1ZM1313.63 241.7C1304.63 241.7 1298.23 240.4 1294.43 237.8C1290.63 235 1288.33 231.5 1287.53 227.3C1286.93 223.1 1286.63 218.8 1286.63 214.4V116.6C1286.63 112.2 1287.03 108 1287.83 104C1288.63 99.8 1290.93 96.4 1294.73 93.8C1298.53 91 1304.93 89.6 1313.93 89.6C1322.93 89.6 1329.23 91 1332.83 93.8C1336.63 96.4 1338.93 99.8 1339.73 104C1340.53 108.2 1340.93 112.6 1340.93 117.2V214.7C1340.93 219.1 1340.53 223.4 1339.73 227.6C1338.93 231.8 1336.63 235.2 1332.83 237.8C1329.23 240.4 1322.83 241.7 1313.63 241.7ZM1313.63 74.9C1304.63 74.9 1298.23 73.6 1294.43 71C1290.63 68.2 1288.33 64.7 1287.53 60.5C1286.93 56.3 1286.63 52 1286.63 47.6C1286.63 43 1287.03 38.7 1287.83 34.7C1288.63 30.5 1290.93 27.1 1294.73 24.5C1298.53 21.9 1304.93 20.6 1313.93 20.6C1322.93 20.6 1329.23 22 1332.83 24.8C1336.63 27.4 1338.93 30.8 1339.73 35C1340.53 39.2 1340.93 43.5 1340.93 47.9C1340.93 52.3 1340.53 56.6 1339.73 60.8C1338.93 65 1336.63 68.4 1332.83 71C1329.23 73.6 1322.83 74.9 1313.63 74.9ZM1382.62 241.7C1375.22 241.7 1368.82 239 1363.42 233.6C1358.22 228.2 1355.62 221.8 1355.62 214.4C1355.62 210.8 1356.22 207.4 1357.42 204.2C1358.82 200.8 1360.92 197.8 1363.72 195.2L1421.32 143.6H1389.22C1384.82 143.6 1380.52 143.2 1376.32 142.4C1372.12 141.6 1368.62 139.3 1365.82 135.5C1363.02 131.7 1361.62 125.3 1361.62 116.3C1361.62 107.3 1363.02 101 1365.82 97.4C1368.62 93.6 1372.12 91.3 1376.32 90.5C1380.52 89.7 1384.82 89.3 1389.22 89.3H1480.12C1487.52 89.3 1493.82 91.9 1499.02 97.1C1504.42 102.3 1507.12 108.6 1507.12 116C1507.12 119.8 1506.42 123.5 1505.02 127.1C1503.62 130.5 1501.72 133.3 1499.32 135.5L1443.22 187.1H1483.72C1488.32 187.1 1492.62 187.5 1496.62 188.3C1500.82 189.1 1504.22 191.5 1506.82 195.5C1509.42 199.3 1510.72 205.7 1510.72 214.7C1510.72 223.7 1509.32 230.1 1506.52 233.9C1503.92 237.7 1500.52 239.9 1496.32 240.5C1492.32 241.3 1488.02 241.7 1483.42 241.7H1382.62Z" fill="url(#paint0_linear_2005_353)"/>
</g>
<defs>
<linearGradient id="paint0_linear_2005_353" x1="-202" y1="128" x2="1740" y2="128" gradientUnits="userSpaceOnUse">
<stop stop-color="#3490DB"/>
<stop offset="0.9375" stop-color="#9B59B6"/>
</linearGradient>
<clipPath id="clip0_2005_353">
<rect width="1537" height="255" fill="white"/>
</clipPath>
</defs>
</svg>
