<svg width="470" height="288" viewBox="0 0 470 288" fill="none" xmlns="http://www.w3.org/2000/svg">
<path d="M144.8 287.2C134.4 287.2 122.8 285.467 110 282C97.2 278.8 84.2667 273.6 71.2 266.4C58.4 259.2 46.5333 249.867 35.6 238.4C24.9333 226.933 16.2667 213.2 9.6 197.2C3.2 181.2 0 162.667 0 141.6C0 121.333 3.2 103.467 9.6 88C16.2667 72.5334 24.9333 59.2 35.6 48C46.2667 36.8 58 27.7333 70.8 20.8C83.8667 13.8667 96.9333 8.80001 110 5.60001C123.067 2.13335 135.067 0.400024 146 0.400024C159.6 0.400024 171.6 2.13335 182 5.60001C192.4 8.80001 200.8 12.2667 207.2 16C213.867 19.4667 218 21.7333 219.6 22.8C224.933 26.2667 229.867 30.1334 234.4 34.4C239.2 38.4 241.6 43.8667 241.6 50.8C241.6 54.2667 240.8 57.8667 239.2 61.6C237.867 65.3334 235.733 69.2 232.8 73.2C227.467 80.6667 222.4 86.1333 217.6 89.6C213.067 93.0667 208.533 94.8 204 94.8C200.533 94.8 197.2 94 194 92.4C190.8 90.8 186.933 88.5334 182.4 85.6C180.533 84.2667 178.133 82.8 175.2 81.2C172.267 79.3334 168.267 77.7333 163.2 76.4C158.133 74.8 151.467 74 143.2 74C136.267 74 128.667 75.3334 120.4 78C112.4 80.4 104.8 84.4 97.6 90C90.4 95.3333 84.5333 102.533 80 111.6C75.4667 120.4 73.2 131.067 73.2 143.6C73.2 156.4 75.4667 167.2 80 176C84.8 184.8 90.8 192 98 197.6C105.2 202.933 112.8 206.933 120.8 209.6C129.067 212 136.533 213.2 143.2 213.2C150.133 213.2 156 212.667 160.8 211.6C165.6 210.267 169.867 208.533 173.6 206.4C177.6 204.267 181.2 202.133 184.4 200C187.333 197.867 190.533 196 194 194.4C197.467 192.8 200.933 192 204.4 192C208.933 192 213.467 193.867 218 197.6C222.533 201.333 227.333 207.067 232.4 214.8C235.333 219.333 237.467 223.6 238.8 227.6C240.4 231.333 241.2 234.8 241.2 238C241.2 244.667 238.8 250 234 254C229.467 258 224.533 261.6 219.2 264.8C217.333 265.867 213.333 268.267 207.2 272C201.067 275.733 192.8 279.2 182.4 282.4C172 285.6 159.467 287.2 144.8 287.2Z" fill="url(#paint0_linear_2007_313)"/>
<path d="M450 216.4C461.467 223.867 467.867 231.333 469.2 238.8C470.533 246 467.067 255.467 458.8 267.2C452.933 275.467 447.6 281.067 442.8 284C438 286.933 432.8 287.6 427.2 286C421.867 284.4 415.467 281.2 408 276.4L385.6 262C374.667 270 362.667 276.267 349.6 280.8C336.533 285.333 322.8 287.6 308.4 287.6C288.933 287.6 270.667 284 253.6 276.8C236.8 269.333 222 259.067 209.2 246C196.4 232.933 186.267 217.867 178.8 200.8C171.6 183.467 168 165.067 168 145.6C168 125.333 171.467 106.4 178.4 88.8C185.6 71.2 195.467 55.7333 208 42.4C220.533 29.0667 235.067 18.6667 251.6 11.2C268.4 3.73334 286.267 0 305.2 0C324.667 0 342.8 3.73334 359.6 11.2C376.667 18.4 391.6 28.5333 404.4 41.6C417.2 54.6667 427.2 70 434.4 87.6C441.6 104.933 445.2 123.733 445.2 144C445.2 154.667 444 165.067 441.6 175.2C439.467 185.333 436.267 195.067 432 204.4L450 216.4ZM306.4 214.4C315.467 214.4 324 212.667 332 209.2C340 205.467 346.933 200.533 352.8 194.4C358.933 188 363.6 180.533 366.8 172C370.267 163.2 372 153.867 372 144C372 134.133 370.267 124.933 366.8 116.4C363.333 107.867 358.533 100.4 352.4 94C346.533 87.3333 339.6 82.2667 331.6 78.8C323.867 75.0667 315.6 73.2 306.8 73.2C297.733 73.2 289.2 75.0667 281.2 78.8C273.2 82.2667 266.133 87.3333 260 94C254.133 100.4 249.467 107.867 246 116.4C242.8 124.933 241.2 134.133 241.2 144C241.2 153.867 242.933 163.067 246.4 171.6C249.867 180.133 254.533 187.6 260.4 194C266.533 200.4 273.467 205.467 281.2 209.2C289.2 212.667 297.6 214.4 306.4 214.4Z" fill="url(#paint1_linear_2007_313)"/>
<defs>
<linearGradient id="paint0_linear_2007_313" x1="-5.6" y1="131.6" x2="247.4" y2="131.6" gradientUnits="userSpaceOnUse">
<stop stop-color="#3498DB"/>
<stop offset="1" stop-color="#6259B6"/>
</linearGradient>
<linearGradient id="paint1_linear_2007_313" x1="162.4" y1="131.6" x2="475.4" y2="131.6" gradientUnits="userSpaceOnUse">
<stop stop-color="#3482DB"/>
<stop offset="1" stop-color="#9B59B6"/>
</linearGradient>
</defs>
</svg>
