<svg xmlns="http://www.w3.org/2000/svg" viewBox="0 0 100 100" width="100" height="100">

  <!-- stem -->
  <path d="M52 18 C54 12 60 10 62 8" fill="none" stroke="#27ae60" stroke-width="3" stroke-linecap="round"/>
  <path d="M52 18 C48 14 44 13 42 11" fill="none" stroke="#27ae60" stroke-width="2.5" stroke-linecap="round"/>
  <!-- body -->
  <path d="M50 22 C64 22 76 32 78 48 C80 62 74 76 64 82 C58 86 54 84 50 78 C46 84 42 86 36 82 C26 76 20 62 22 48 C24 32 36 22 50 22Z" fill="#E74C3C" stroke="#1a1a1a" stroke-width="2.5" stroke-linecap="round" stroke-linejoin="round"/>
  <!-- shading -->
  <path d="M50 22 C58 22 68 30 72 44 C68 38 60 34 50 34 C40 34 32 38 28 44 C32 30 42 22 50 22Z" fill="#ff7675" opacity="0.5"/>
  <!-- highlight -->
  <ellipse cx="40" cy="40" rx="5" ry="8" fill="white" opacity="0.25" transform="rotate(-15 40 40)"/>
  <!-- face -->
  <circle cx="43" cy="62" r="4" fill="white" stroke="#1a1a1a" stroke-width="2" stroke-linecap="round" stroke-linejoin="round"/>
  <circle cx="57" cy="62" r="4" fill="white" stroke="#1a1a1a" stroke-width="2" stroke-linecap="round" stroke-linejoin="round"/>
  <circle cx="44" cy="63" r="2" fill="#1a1a1a"/>
  <circle cx="58" cy="63" r="2" fill="#1a1a1a"/>
  <circle cx="44.8" cy="62.2" r="0.7" fill="white"/>
  <circle cx="58.8" cy="62.2" r="0.7" fill="white"/>
  <path d="M44 70 Q50 75 56 70" fill="none" stroke="#1a1a1a" stroke-width="2" stroke-linecap="round"/>

</svg>