<svg xmlns="http://www.w3.org/2000/svg" viewBox="0 0 100 100" width="100" height="100">

  <!-- stem -->
  <path d="M50 18 C50 12 54 8 56 6" fill="none" stroke="#27ae60" stroke-width="4" stroke-linecap="round"/>
  <path d="M50 18 C46 14 44 10 42 9" fill="none" stroke="#27ae60" stroke-width="3" stroke-linecap="round"/>
  <!-- pumpkin body -->
  <path d="M50 22 C64 22 76 34 76 52 C76 70 64 82 50 82 C36 82 24 70 24 52 C24 34 36 22 50 22Z" fill="#F39C12" stroke="#1a1a1a" stroke-width="2.5" stroke-linecap="round" stroke-linejoin="round"/>
  <!-- pumpkin ridges -->
  <path d="M50 22 C50 22 46 36 46 52 C46 68 50 82 50 82" fill="none" stroke="#d68910" stroke-width="2" opacity="0.6"/>
  <path d="M50 22 C50 22 54 36 54 52 C54 68 50 82 50 82" fill="none" stroke="#d68910" stroke-width="2" opacity="0.6"/>
  <path d="M34 28 C28 38 28 66 34 76" fill="none" stroke="#d68910" stroke-width="2" opacity="0.5"/>
  <path d="M66 28 C72 38 72 66 66 76" fill="none" stroke="#d68910" stroke-width="2" opacity="0.5"/>
  <!-- highlight -->
  <ellipse cx="38" cy="38" rx="7" ry="10" fill="white" opacity="0.2" transform="rotate(-10 38 38)"/>
  <!-- carved face - triangle eyes -->
  <polygon points="36,46 42,38 48,46" fill="#1a1a1a"/>
  <polygon points="52,46 58,38 64,46" fill="#1a1a1a"/>
  <!-- nose -->
  <polygon points="50,50 46,57 54,57" fill="#1a1a1a"/>
  <!-- jagged mouth -->
  <path d="M32 66 L36 62 L40 66 L44 60 L50 66 L56 60 L60 66 L64 62 L68 66" fill="#1a1a1a" stroke="#1a1a1a" stroke-width="1" stroke-linejoin="round"/>
  <!-- inner glow -->
  <ellipse cx="50" cy="62" rx="14" ry="8" fill="#f39c12" opacity="0.3"/>

</svg>