<svg xmlns="http://www.w3.org/2000/svg" viewBox="0 0 100 100" width="100" height="100">

  <!-- tail -->
  <path d="M78 55 C85 46 90 42 88 38 C86 34 80 38 78 44" fill="#3498DB" stroke="#1a1a1a" stroke-width="2.5" stroke-linecap="round" stroke-linejoin="round"/>
  <path d="M78 55 C85 64 90 68 88 72 C86 76 80 72 78 66" fill="#3498DB" stroke="#1a1a1a" stroke-width="2.5" stroke-linecap="round" stroke-linejoin="round"/>
  <!-- body -->
  <ellipse cx="44" cy="56" rx="38" ry="26" fill="#3498DB" stroke="#1a1a1a" stroke-width="2.5" stroke-linecap="round" stroke-linejoin="round"/>
  <!-- belly -->
  <ellipse cx="38" cy="62" rx="20" ry="12" fill="#85c1e9" opacity="0.6"/>
  <!-- spout -->
  <path d="M28 30 C26 22 28 16 30 12" fill="none" stroke="#85c1e9" stroke-width="3" stroke-linecap="round"/>
  <path d="M30 12 C28 8 32 6 32 10" fill="none" stroke="#85c1e9" stroke-width="2.5" stroke-linecap="round"/>
  <path d="M30 12 C34 8 36 10 33 13" fill="none" stroke="#85c1e9" stroke-width="2.5" stroke-linecap="round"/>
  <!-- flipper -->
  <path d="M42 70 C38 78 30 82 26 78 C22 74 30 68 38 68Z" fill="#2980b9" stroke="#1a1a1a" stroke-width="2.5" stroke-linecap="round" stroke-linejoin="round"/>
  <!-- eye -->
  <circle cx="22" cy="50" r="5" fill="white" stroke="#1a1a1a" stroke-width="2" stroke-linecap="round" stroke-linejoin="round"/>
  <circle cx="23" cy="50" r="2.5" fill="#1a1a1a"/>
  <circle cx="23.8" cy="49.2" r="0.9" fill="white"/>
  <!-- smile -->
  <path d="M16 56 Q20 60 26 57" fill="none" stroke="#1a1a1a" stroke-width="2" stroke-linecap="round"/>
  <!-- highlight -->
  <ellipse cx="52" cy="44" rx="10" ry="6" fill="white" opacity="0.2" transform="rotate(-10 52 44)"/>

</svg>